<?xml version="1.0" encoding="UTF-8"?>
<!DOCTYPE svg PUBLIC "-//W3C//DTD SVG 1.1//EN" "http://www.w3.org/Graphics/SVG/1.1/DTD/svg11.dtd">
<!-- Creator: CorelDRAW -->
<svg xmlns="http://www.w3.org/2000/svg" xml:space="preserve" width="430.891mm" height="113.452mm" version="1.1" style="shape-rendering:geometricPrecision; text-rendering:geometricPrecision; image-rendering:optimizeQuality; fill-rule:evenodd; clip-rule:evenodd"
viewBox="0 0 37368.24 9838.91"
 xmlns:xlink="http://www.w3.org/1999/xlink"
 xmlns:xodm="http://www.corel.com/coreldraw/odm/2003">
 <defs>
  <style type="text/css">
   <![CDATA[
    .fil1 {fill:black}
    .fil5 {fill:#3ACC29}
    .fil0 {fill:#EFDFCB}
    .fil4 {fill:yellow}
    .fil3 {fill:#E56A23;fill-rule:nonzero}
    .fil2 {fill:#1B6003;fill-rule:nonzero}
   ]]>
  </style>
 </defs>
 <g id="Layer_x0020_1">
  <metadata id="CorelCorpID_0Corel-Layer"/>
  <g id="_2792750300512">
   <path class="fil0" d="M24285.89 5460.78l-27.83 -4681.1 615.31 -619.04 3065.43 135.32 642.04 612.34 -89.99 543.75 -148.31 3750.62 2588.78 -388.17 514.41 775.6 2.37 398.78 175.89 0.48 96.12 -1664.57 -766.09 7.92 -926.05 -285.53 0 -2739.26 689.19 -517.17 6142.28 -57.97 462.73 711.4 0 2735.36 -1628.67 70.06 -62.02 1801.36 1160.25 31.05 576.51 601.95 0 2255.57 -609.12 599.73 -6298.88 -111.76 -382.93 -564.45 -4448.56 51.01 -382.68 582.33 -5480.94 -532.22 -497.36 497.36 -6264.34 -235.13 -31.52 -45.97 -524.79 557.41 -5712.33 -258.15 -312 -454.99 -867.07 80.31 3.65 102.76 -591.25 631.15 -2068.43 0 -459.73 -443.93 -1748.37 142.04 -417.17 -748.7 -65.74 -1849.45 168.6 -174.83 -183.86 -254.78 -193.44 -5442.39 497.29 -764.89 1649.07 141.86 350.33 -363.27 2162.72 0 596.03 575.31 2.97 83.5 1053.91 113.33 576.4 -576.4 5771.91 229.83 332.15 460.09 251.97 -193.02 5356.44 219.3 11.2 -388.34 604.2 -604.18 3064.63 135.31 607.48 582.65 -400.54 4675.61 1797.76 67.21zm-10249.15 518.66l98.51 -1.27 92.39 -1601.24 -190.9 -13.98 0 756.5 -419.76 442.62 419.76 383.95 0 33.41zm4420.58 1.72l43.34 -1503.4 -304.8 -5.32 -51.81 1505.22 313.26 3.5z"/>
   <path class="fil1" d="M24682.05 5869.59l-29.3 -4928.49 377.16 -379.44 2744.02 121.14 384.47 366.68 -60 362.49 -168.07 4250.64 2811.44 -421.56 310.94 468.82 3.99 671.67 938.87 2.56 141.9 -2457.37 -1126.12 11.64 -589.66 -181.81 0 -2251.84 428.41 -321.48 5797.06 -54.71 281.28 432.44 0 2241.43 -1615.9 69.5 -88.21 2562.04 1395.02 37.33 355.16 370.84 0 1932.56 -373.78 368.01 -5929.33 -105.2 -288.23 -424.87 3.43 -146.84 -5039.44 57.78 0 102.11 -299.59 455.9 -5560.97 -539.99 0 144.36 -375.73 375.73 -5894.7 -221.26 -195.87 -285.7 -735.92 781.66 -5335.8 -241.13 -284.24 -414.52 0 -73.79 -1515.27 140.36 11.05 310.82 -362.62 387.1 -1738.7 0 -368.97 -356.29 -3.87 -108.92 -1773.7 144.1 -247.69 -444.53 -56.44 -1587.65 283.24 -293.69 -3.7 0.21 -304.98 -422.6 -184.78 -5198.61 300.83 -462.7 1600.81 137.71 364.44 -377.9 1836.42 0 367.23 354.46 9.44 265.61 1787.28 192.2 0 -229.05 380.92 -380.92 5408.27 215.34 480.24 665.22 0 -49.74 437.27 -334.97 5612.21 229.77 18.18 -630.27 370.97 -370.96 2743.3 121.13 364.65 349.74 -419.74 4899.73 2621.46 98zm-11039.04 508.67l864.17 -11.11 135.86 -2354.58 -1000.03 -73.21 0 1023.1 -587.58 619.58 587.58 537.45 0 258.77zm-6978.68 -2487.48l-3170.93 -170.37 -52.42 353.33 3223.36 -88.71 0 -94.25zm12175.39 2488.4l65.98 -2288.12 -1090.02 -19.04 -78.99 2294.84 1103.02 12.32zm-9288.52 -3030.83l0 513.71 1052.59 120.95 42.4 -514.98 -1094.99 -119.69zm-38.88 3082.48l-5.64 363.06 1067.33 -21.15 -24.99 -298.15 -1036.7 -43.76z"/>
   <g>
    <path class="fil2" d="M18887.58 1922.55l39.88 1644.98 -1617.55 -28.25 -115.14 3345.36 1707.36 19.07 60.68 62.41 0 1502.83 -60.68 60.68 -5402.94 -202.8 -41.6 -60.68 0 -1300.02 60.68 -62.41 1483.75 -19.07 193.7 -3356.82 -1596 -116.84 -100.52 20.8 -41.6 -62.41 0 -1603.37 81.48 -62.41 5348.53 218.98zm692.11 -988.09l2315.8 102.26 41.58 39.88 -445.28 5197.91 3291.69 123.06 39.88 60.67 0 2010.71 -39.88 60.68 -5444.54 -528.69 -20.8 -39.84 200.88 -6965.95 60.68 -60.68z"/>
    <polygon class="fil3" points="2886.51,998.12 4288.82,998.12 4351.65,1058.76 4369.71,1566.65 6449.04,1790.25 6503.2,3313.88 6464.8,3355.49 3045.25,3171.76 2831.3,4613.94 2852.1,4613.94 6505.96,4513.39 6548,4574.06 6670.72,8026.93 6591.39,8087.6 4608.01,8271.33 4628.9,8858.97 4570.44,8921.38 3270.41,8921.38 3205.79,8858.97 3189.96,8413.49 1205.77,8574.69 1183.56,8534.82 1139.5,7295.47 1198.02,7234.79 4624.64,7031.99 4650.59,6056.08 1144.26,6258.89 1100.5,6198.25 927.25,1323.97 966.7,1263.29 2841.03,1424.52 2828.03,1058.76 "/>
    <polygon class="fil4" points="3412.17,1309.02 3428.41,1765.99 1512.36,1601.17 1664.18,5872.75 5235.08,5666.23 5190.99,7324.57 1723.09,7529.82 1746.17,8179.37 3751.09,8016.48 3770.16,8553.01 4514.01,8553.01 4491.96,7932.88 6556.56,7741.64 6453.16,4832.64 3103.44,4924.84 2670.17,4924.84 2987.22,2787.81 6386.98,2970.49 6354.85,2066.47 4275.5,1842.87 4256.52,1309.02 "/>
    <path class="fil5" d="M18791.37 2220.16l-4758.54 -194.83 0 1030.83 1756.83 128.64 -231.21 4006.67 -1525.62 19.6 0 758.33 4825.94 181.15 0 -939.03 -1779.8 -19.89 138.6 -4026.49 1597.37 27.89 -23.58 -972.86zm1294.63 -962.52l-184.7 6405.06 4818.04 467.85 0 -1433.08 -3360.02 -125.6 438.03 -5238.67 -1711.34 -75.57z"/>
    <path class="fil2" d="M7253.52 1209.11l4924.5 196.08 853.41 1182.13 87.78 218.49 0 1947.75 -788.07 831 0 44.83 788.07 720.84 0 1335.24 -1051.39 1116.73 -4834.85 -218.49 -44.83 -65.37 0 -7243.86 65.37 -65.37zm1773.88 1555.04l0 1564.96 2015 231.54 42.96 -42.93 124.73 -1515 -2182.69 -238.58zm-30.47 3120.64l-22.41 1443.54 2168.12 -42.96 -110.2 -1314.66 -2035.51 -85.92z"/>
    <path class="fil5" d="M7807.89 1556.31l0 6644.69 4362.47 197.13 836.78 -888.73 0 -1028.91 -788.08 -720.84 0 -351.94 788.08 -831 0 -1731.1 -44.72 -111.32 -723.02 -1001.53 -4431.51 -176.45zm1107.44 768.79l2942.5 321.65 -164.97 2003.91 -262.93 262.72 -2514.6 -288.96 0 -2299.32zm-24.59 3147.31l2733.23 115.37 169.73 2024.75 -2937.08 58.19 34.13 -2198.3z"/>
    <path class="fil2" d="M36364.29 1655.02c13.29,20.88 26.59,41.77 39.88,61.95 0,528.27 0,1056.53 0,1584.1 -266.47,12.52 -532.94,26.44 -799.41,39.67 -266.47,13.23 -532.94,28.54 -799.41,41.76 -20.5,595.09 -41.01,1189.47 -61.5,1783.16 -20.5,594.38 -40.99,1189.46 -61.5,1783.15 284.2,6.26 568.97,13.92 853.16,20.18 284.2,6.26 569.51,13.93 854.27,20.19 19.94,21.58 39.88,42.45 60.39,63.33 0,501.12 0,1002.24 0,1503.36 -20.5,20.18 -40.45,39.67 -60.39,59.15 -906.34,-15.31 -1813.24,-31.32 -2719.02,-47.32 -905.78,-16.01 -1812.68,-32.02 -2718.46,-48.02 -13.85,-20.19 -27.7,-40.37 -41.55,-61.95 11.07,-496.25 22.71,-993.2 34.34,-1490.14 19.95,-20.18 40.44,-40.37 60.94,-61.25 247.08,0.7 494.17,2.1 741.25,3.49 247.07,1.39 494.72,2.78 742.35,4.17 33.8,-583.94 67.58,-1167.89 101.39,-1751.84 33.77,-583.25 67.58,-1166.5 101.38,-1750.44 -267.58,0.69 -535.72,0.69 -802.75,0.69 -267.02,0 -535.16,1.4 -802.18,2.78 -47.65,-15.31 -95.29,-29.93 -142.38,-44.54 0,-533.83 0,-1068.36 0,-1602.89 27.14,-20.19 54.29,-40.37 81.44,-61.25 889.16,-0.69 1779.47,8.69 2668.6,0 889.23,-8.7 1779.44,-35.5 2669.16,-51.5z"/>
    <polygon class="fil2" points="25238.16,1095.17 27554.57,1197.42 27596.38,1237.3 27576.29,1358.65 27381.92,6274.5 30489.6,5808.51 30529.84,5869.19 30541.79,7879.91 30502.27,7940.58 25239.34,8000.93 25218.31,7961.09 25177.84,1155.85 "/>
    <polygon class="fil5" points="25754.65,1418.71 25791.58,7628.87 30435.96,7575.64 30427.59,6168.1 27261.67,6642.84 27465.24,1494.22 "/>
    <polygon class="fil5" points="36300.61,1972.53 31520.74,2017.62 31520.74,3046.88 33288.68,3028.58 33046.41,7224.75 31514.45,7220.56 31492.57,8159.25 36346.69,8245.39 36346.69,7296.23 34566.9,7248.61 34712.55,3018.26 36300.61,2949.97 "/>
   </g>
  </g>
 </g>
</svg>
