<?xml version="1.0" encoding="UTF-8"?>
<!DOCTYPE svg PUBLIC "-//W3C//DTD SVG 1.1//EN" "http://www.w3.org/Graphics/SVG/1.1/DTD/svg11.dtd">
<!-- Creator: CorelDRAW -->
<svg xmlns="http://www.w3.org/2000/svg" xml:space="preserve" width="242.995mm" height="163.29mm" version="1.1" style="shape-rendering:geometricPrecision; text-rendering:geometricPrecision; image-rendering:optimizeQuality; fill-rule:evenodd; clip-rule:evenodd"
viewBox="0 0 230265.12 154735.66"
 xmlns:xlink="http://www.w3.org/1999/xlink"
 xmlns:xodm="http://www.corel.com/coreldraw/odm/2003">
 <defs>
  <style type="text/css">
   <![CDATA[
    .fil0 {fill:#FEFEFE}
    .fil1 {fill:black}
    .fil7 {fill:#00CCFF}
    .fil6 {fill:#3ACC29}
    .fil5 {fill:#FFCC00}
    .fil2 {fill:#003399;fill-rule:nonzero}
    .fil3 {fill:#1B6003;fill-rule:nonzero}
    .fil4 {fill:#FF6633;fill-rule:nonzero}
   ]]>
  </style>
 </defs>
 <g id="Layer_x0020_1">
  <metadata id="CorelCorpID_0Corel-Layer"/>
  <g id="_2327867219824">
   <path class="fil0" d="M219601.43 129876.53c265.52,0.95 530.95,1.42 796.47,1.42l2124.83 0c3051.98,0 5618.59,1765.88 6964.49,4457.76l271.3 542.6 170.19 469.45 278.69 1180.82 57.71 495.79 0 9864.09c0,3000.71 -1709.31,5537.57 -4334.2,6906.87l-557.86 291.01 -484.33 182.61 -1222.33 299.73 -514.18 62.16 -629.5 0c-948.18,0 -1893.14,-49.65 -2840.28,-82.54 -2143.22,-74.39 -4286.25,-154.46 -6429.28,-234.91 -7593.23,-284.95 -15186.08,-580.51 -22778.83,-877.87l-2289.91 1095.73 -1157.6 204.4 -31173.84 -3027.06 -529.15 805.09 -885.36 773.16 -2600.54 1244.41 -1157.6 204.4 -30959.68 -3006.3c-696.97,838.26 -1574.93,1539.59 -2584.05,2065.99l-557.86 291.01 -484.42 182.61 -1222.42 299.82 -514.18 62.07 -629.31 0c-948.18,0 -1893.14,-49.65 -2840.38,-82.54 -2143.22,-74.39 -4286.25,-154.46 -6429.18,-234.91 -8100.58,-303.99 -16200.69,-620.31 -24300.7,-937.47l-1228.39 -48.04 -265.43 -74.01 -267.04 65.48 -514.18 62.16 -629.5 0c-4388.21,0 -8778.98,280.68 -13160.84,493.33l-828.59 40.18 -677.73 -74.58 -1599.86 -439.03 -620.12 -281.16 -692.04 -457.03c-35.73,-23.6 -71.45,-47.66 -107.18,-72.3 -1404.74,1055.36 -3060.41,1666.19 -4843.35,1666.19 -3469.59,0 -6940.51,202.13 -10405.46,365.59l-1344.95 63.4 -1076.11 -226.1 -2411.49 -1198.73 -829.92 -721.23 -1325.43 -1932.75 -247.71 483.76 -745.87 831.15 -2118.3 1391.67 -534.17 254.06 -1371.77 434.48 -583.26 99.69 -11401.21 366.06c-514.74,107.27 -1038.58,162.71 -1566.69,162.71l-1282.41 0 -1017.45 -251.59 -2269.16 -1195.51 -782.82 -696.78 -1427.2 -2081.24 -282.2 -582.97 -466.7 -1505.66 -96.94 -640.4 0 -24367.51 -4947.3 -111.72 -1002.1 -269.41 -2224.9 -1223.18 -764.44 -701.9 -1388.06 -2082.19 -270.35 -572.83 -446.8 -1475.34 -92.77 -626.85 0 -14318.63 96.94 -640.4 466.7 -1505.76 282.2 -583.07 1503.01 -2191.74 881.47 -746.62 2567.75 -1195.7 1138.75 -194.26 1409.39 138.64c8091.77,795.71 16183.35,1594.17 24273.22,2409.5 3174.6,319.91 6356.69,568.19 9519.73,995.56l1020.49 137.88c40.08,-5.78 80.26,-11.18 120.54,-16.3l76.66 -9.76 61.5 -7.01 155.6 -15.26 65.01 -5.4 13838.67 -940.13 0 -21296.77 -4947.11 -111.72 -1002.1 -269.41 -2225 -1223.09 -764.53 -701.9 -1387.97 -2082.1 -270.45 -572.93 -446.8 -1475.53 -92.77 -626.75 0 -9009.53c-4205.98,-206.49 -8412.16,-408.33 -12618.8,-598.42 -2616.27,-118.26 -5240.59,-304.85 -7859.79,-304.85l-1282.5 0 -1017.45 -251.59 -2269.16 -1195.51 -782.82 -696.78 -1427.2 -2081.24 -282.2 -582.97 -466.7 -1505.66 -96.94 -640.4 0 -42206.72c0,-3081.17 1817.52,-5708.05 4563.23,-7021.15l573.69 -274.33 495.98 -166.97 1245.83 -256.52 521.47 -42.74 28749.94 1144.62c1648.28,54.01 2929.45,560.04 4019.49,1353.38 925.34,-540.8 1976.34,-905.54 3104.48,-1051.19l166.21 -21.51 137.59 -13.27 334.13 -21.42 137.88 -4.45 123 0c761.98,-13.93 1531.25,-87.56 2292.09,-135.6 2127.11,-134.18 4253.55,-277.46 6380,-421.31 7567.93,-512.19 15134.62,-1043.61 22701.22,-1574.74 388.05,-293.76 801.87,-554.45 1235.69,-780.74l557.86 -291.01 484.33 -182.61 1222.33 -299.73 514.18 -62.16 629.5 0c1477.42,0 2948.97,97.32 4424.03,161.95 3400.04,148.96 6799.51,311.48 10198.88,476.74l1862.82 90.5 350.24 146.41 96.56 0 748.05 352.99 197.86 82.73 23.88 21.89 773.92 365.21 1174.09 1425.4 774.96 712.42 323.14 620.59 793.34 962.97 473.71 1869.17 -461.68 2366.29c-16.58,699.81 -55.15,1398.11 -84.15,2097.73 -81.31,1965.35 -170.19,3930.42 -259.55,5895.39 -221.08,4861.07 -449.64,9721.76 -680.86,14582.35 2624.89,94.67 5249.97,184.5 7875.05,272.44l0 -24760.77c0,-3000.71 1709.31,-5537.57 4334.2,-6906.87l557.86 -291.01 484.33 -182.61 1222.33 -299.73 514.18 -62.16 629.5 0c1477.42,0 2948.88,97.32 4423.93,161.95 3400.04,148.96 6799.51,311.48 10198.88,476.74l1862.82 90.5 350.24 146.41 96.66 0 748.8 353.37 197.01 82.35 23.69 21.8 774.2 365.31 1174.09 1425.4 774.96 712.42 323.14 620.59 793.34 962.97 473.71 1869.17 -461.68 2366.29c0,0 0,0 0,0 -16.68,699.81 -55.25,1398.11 -84.24,2097.73 -81.31,1965.35 -170.1,3930.42 -259.46,5895.39 -221.08,4861.07 -449.64,9721.76 -680.86,14582.35 4268.81,153.89 8538.09,294.8 12807.28,436.19l1263.45 41.79 995.47 277.84 2205 1237.01 582.12 542.6 333.56 -5780.44c-433.82,6.82 -867.64,11.75 -1301.55,14.5l-1440.28 297.93 -1280.42 -119.02 -2924.15 -1200.06 -994.9 -814.47 -1560.63 -2340.89 -270.54 -573.21 -446.61 -1475.62 -92.77 -626.47 0 -10647.48c0,-4015.8 2994.84,-7184.05 6926.87,-7692.25l166.21 -21.51 137.97 -13.36 334.22 -21.42 137.88 -4.45 123.1 0c761.98,-13.93 1531.25,-87.56 2292.09,-135.6 2127.11,-134.18 4253.55,-277.46 6380,-421.31 8007.72,-542.04 16014.01,-1105.11 24020.3,-1667.33l1401.52 -98.46 1124.53 221.74 2518.38 1246.49 858.44 759.8 1435.73 2184.91 264.57 567.81 436.85 1460.18 90.69 619.74 0 10521.36c0,3714.93 -2530.89,6473.53 -6008.35,7413.66 -855.6,231.31 -1723.24,372.22 -2599.78,493.8 -590.17,81.78 -1181.48,154.56 -1773.55,220.32 -4.17,121.29 -8.34,242.59 -12.41,363.79 -94,2760.11 -182.98,5520.23 -269.6,8280.53 265.52,0.95 530.95,1.42 796.47,1.42l2124.83 0c3052.07,0 5619.07,1765.97 6964.68,4458.05l271.3 542.7 170 469.16 278.69 1180.73 57.71 495.79 0 9864.09c0,3000.62 -1709.4,5537.57 -4334.2,6906.78l-557.86 291.01 -484.33 182.61 -1222.33 299.73 -514.18 62.16 -629.5 0c-948.18,0 -1893.24,-49.56 -2840.38,-82.44 -2143.22,-74.48 -4286.15,-154.56 -6429.18,-235.01 -3739.95,-140.34 -7479.8,-283.43 -11219.65,-427.85l0 40051.56c0,136.08 -3.51,271.3 -10.52,405.39 1225.17,-1252.37 2884.92,-2097.45 4757.02,-2339.37l166.21 -21.51 137.97 -13.36 335.36 -21.51 140.15 -4.45 121.48 0.19c761.5,-14.21 1530.11,-87.65 2290.38,-135.6 2127.11,-134.18 4253.55,-277.56 6380,-421.4 8007.53,-541.94 16013.72,-1104.06 24019.73,-1667.23l1401.71 -98.65 1124.82 221.84 2518.57 1246.68 858.35 759.8 1435.63 2184.82 264.57 567.81 436.85 1460.18 90.69 619.74 0 10521.36c0,3714.93 -2530.89,6473.43 -6008.35,7413.56 -855.6,231.31 -1723.33,372.32 -2599.87,493.9 -590.17,81.78 -1181.39,154.56 -1773.46,220.32 -4.17,121.29 -8.34,242.59 -12.41,363.79 -94,2760.02 -182.98,5520.23 -269.6,8280.44zm-37972.78 -24732.53c-616.8,633.57 -1346.84,1174.85 -2166.15,1602.32l-615.66 321.34 -536.92 195.02 -1356.22 297.27 -568.76 47.48 -693.37 -34.11c-360.38,-17.72 -720.85,-35.54 -1081.23,-53.92 -60.93,1408.82 -124.71,2817.54 -188.76,4226.26 -221.08,4861.07 -449.64,9721.76 -680.86,14582.26 4268.81,153.99 8538.09,294.8 12807.28,436.19l1263.55 41.79 995.47 277.94 2205.1 1237.11 581.93 542.51 333.56 -5780.44c-433.82,6.73 -867.73,11.66 -1301.64,14.4l-1440.09 297.93 -1280.32 -119.02 -2924.24 -1199.87 -994.99 -814.66 -1560.72 -2340.89 -270.45 -573.21 -446.61 -1475.43 -92.77 -626.56 0 -10647.58c0,-152.66 4.36,-303.99 12.89,-454.1zm-44234.61 21183.91c2624.89,94.76 5249.97,184.5 7875.05,272.44l0 -21020.63c-68.32,-4.07 -136.65,-8.05 -205.06,-12.03 -760.08,-44.35 -1531.34,-110.3 -2292.47,-110.3l-1282.31 0 -1017.36 -251.59 -2063.81 -1087.1c-19.24,577.38 -49.75,1154 -73.63,1731.57 -81.31,1965.35 -170.19,3930.42 -259.55,5895.39 -221.08,4861.07 -449.64,9721.76 -680.86,14582.26zm-2247.36 -30624.03l0 -36009.7 -1545.94 739.9 -1157.79 204.4 -1106.05 -107.36 0 34207.25 1813.45 87.94 350.43 146.5 96.56 0 747.67 352.8 198.15 82.82 23.97 21.98 579.56 273.48z"/>
   <path class="fil1" d="M189616.28 134180.12l1749.2 0c1410.24,0 2822.37,-18.95 4233.94,-47.95l892.84 -15475.48c-2107.3,72.4 -4221.71,134.75 -6316.32,140.53l-1232.09 254.91 -1734.61 -711.75 -1028.26 -1542.34 -263.06 -869.06 0 -10330.89c0,-1850.5 1390.81,-3195.45 3176.21,-3425.62l97.51 -12.6 196.25 -12.6 90.88 0.09c820.25,-13.27 1698.22,-91.92 2526.24,-144.13 2133.46,-134.56 4266.63,-278.41 6399.61,-422.73 8011.22,-542.13 16021.4,-1104.73 24031.2,-1667.99l829.83 -58.37 1491.07 738.1 948.94 1444.07 257.28 860.05 0 10208.17c0,1777.06 -1279.28,2841.51 -2828.91,3260.45 -668.45,180.71 -1382.47,290.44 -2068.07,385.58 -1760.1,244.01 -3558.67,404.16 -5343.78,541.56 -55.81,1385.51 -103.67,2771.68 -150.86,4157.56 -143.94,4225.79 -276.04,8452.24 -406.05,12678.6 1744.37,31.37 3489.21,51.83 5232.63,51.83l2124.83 0c1422.08,0 2505.96,858.54 3116.51,2079.54l159.67 319.35 164.03 694.98 0 9614.49c0,1397.45 -830.96,2471.09 -2021.73,3092.44l-328.44 171.33 -719.52 176.45 -370.52 0c-888.39,0 -1802.36,-49.09 -2691.03,-79.98 -2139.14,-74.2 -4278.29,-154.27 -6417.15,-234.44 -8098.21,-303.99 -16196.05,-620.4 -24293.78,-937.19l-331.29 -12.98 -391.46 595.67 -1540.35 737.05 -33587.98 -3261.5 0 202.03 -257.28 860.05 -961.07 1462.36 -1540.25 737.05 -33352.97 -3238.66c-99.59,1266.11 -898.24,2241.96 -2011.22,2822.75l-328.44 171.33 -719.62 176.45 -370.42 0c-888.48,0 -1802.46,-49.09 -2691.13,-79.98 -2139.14,-74.2 -4278.19,-154.27 -6417.15,-234.44 -8098.21,-303.99 -16196.05,-620.4 -24293.69,-937.19l-726.06 -28.43 -746.34 -412.02 -510.38 266.28 -719.52 176.45 -370.52 0c-4407.26,0 -8965.18,284.76 -13369.31,498.35l-488.21 23.69 -942.88 -258.7 -407.95 -269.41c-1025.79,-677.83 -2451.95,-2680.99 -3655.23,-4542.1l-129.92 2880.75 -567.9 1152.2 -491.34 413.82c-705.69,594.15 -1538.36,976.99 -2476.97,976.99 -3509.11,0 -7101.99,205.06 -10608.06,370.33l-795.81 37.53 -1426.92 -709.29 -969.5 -1413.74 -274.81 -886.97 0 -28051.83c-937.38,10.71 -1910.96,75.71 -2841.42,118.17 -1560.25,71.17 -3120.3,147.54 -4680.26,226.38 57.33,2038.89 158.25,4091.42 234.63,6105.19 260.88,6878.06 553.5,13755.56 849.54,20632.2l34.87 808.88 -738.1 1441.32 -1404.46 922.69 -807.84 255.86 -11551.7 370.9c-315.27,93.15 -641.06,146.12 -982.49,146.12l-758.28 0 -1341.82 -706.92 -947.71 -1382 -274.9 -886.97 0 -28249.79 -8633.61 -194.92 -1315.48 -723.22 -924.49 -1386.83 -263.15 -869.06 0 -13678.05 274.9 -887.06 993.1 -1448.14 1520.45 -708.06 834.56 82.06c8088.26,795.81 16176.43,1593.51 24262.8,2408.46 3091.87,311.67 6299.83,562.98 9375.22,978.51l754.02 101.87 438.08 313.19c332.8,-142.33 692.42,-240.6 1069.29,-289.31l46.05 -5.88 92.39 -9.1 18332.35 -1245.35 -240.69 -351 -274.9 -886.97 0 -28249.79 -8633.52 -194.92 -1315.57 -723.22 -924.49 -1386.74 -263.15 -869.15 0 -12787.57c-5575.1,-276.8 -11150.67,-549.43 -16726.8,-801.4 -2642.14,-119.4 -5413.24,-309.21 -8053.96,-309.21l-758.38 0 -1341.82 -706.92 -947.71 -1382 -274.9 -886.97 0 -41882.82c0,-1425.97 877.68,-2547.28 2117.25,-3140.01l337.63 -161.47 733.36 -151.05 28506.31 1134.96c1828.33,54.68 2834.31,1644.39 3784.01,2960.44 292.05,404.82 581.27,812.48 868.11,1222.23l0 -487.64c0,-1850.59 1390.91,-3195.54 3176.21,-3425.62l97.6 -12.6 196.25 -12.6 90.78 0c820.25,-13.17 1698.22,-91.82 2526.24,-144.13 2133.55,-134.56 4266.73,-278.31 6399.61,-422.64 8011.32,-542.22 16021.4,-1104.82 24031.2,-1668.08l222.78 -15.64c350.81,-472.67 827.36,-860.24 1382.09,-1149.65l328.44 -171.33 719.52 -176.45 370.52 0c1390.62,0 2844.55,96.85 4235.74,157.78 3393.03,148.68 6785.86,311.2 10178.22,475.8l1109.09 53.92 204.68 188.1 240.69 0 750.79 911.51 438.75 403.3 20.56 154.27 629.78 764.44 -277.08 1420.09c-24.07,123.66 -50.41,250.64 -72.49,376.39 -7.77,783.58 -55.34,1587.92 -87.56,2367.33 -81.12,1959.48 -169.72,3918.67 -258.79,5877.76 -287.22,6313.76 -586.95,12627.14 -888.67,18940.24 922.79,28.9 1846.14,45.3 2717,77.42 4654.68,171.71 9310.4,326.07 13965.74,480.06l0 -29208.2c0,-1397.45 830.96,-2471.09 2021.73,-3092.44l328.44 -171.33 719.52 -176.45 370.52 0c1390.62,0 2844.55,96.85 4235.64,157.78 3393.12,148.68 6785.86,311.2 10178.22,475.8l1109.09 53.92 204.68 188.1 240.79 0 750.79 911.51 438.75 403.3 20.56 154.27 629.78 764.44 -277.08 1420.09c-24.16,123.66 -50.51,250.64 -72.49,376.39 -7.77,783.58 -55.34,1587.92 -87.65,2367.33 -81.02,1959.48 -169.62,3918.67 -258.7,5877.76 -287.22,6313.76 -586.95,12627.14 -888.67,18940.24 922.79,28.9 1846.14,45.3 2717,77.42 4817.19,177.68 9635.53,336.78 14453.48,496.17l747 24.73 1303.73 731.37 902.6 1373.57 257.28 859.96 0 126.6 1749.2 0c1410.24,0 2822.37,-19.05 4233.94,-47.95l892.84 -15475.48c-2107.3,72.3 -4221.71,134.66 -6316.32,140.53l-1232.09 254.91 -1734.61 -711.85 -1028.26 -1542.24 -263.06 -869.15 0 -10330.79c0,-1850.59 1390.81,-3195.54 3176.21,-3425.62l97.51 -12.6 196.25 -12.6 90.88 0c820.25,-13.17 1698.22,-91.82 2526.24,-144.13 2133.46,-134.56 4266.63,-278.31 6399.61,-422.64 8011.22,-542.22 16021.4,-1104.82 24031.2,-1668.08l829.83 -58.28 1491.07 738 948.94 1444.07 257.28 860.05 0 10208.17c0,1777.06 -1279.28,2841.61 -2828.91,3260.55 -668.45,180.71 -1382.47,290.44 -2067.98,385.49 -1760.19,244.11 -3558.76,404.25 -5343.88,541.56 -55.81,1385.6 -103.67,2771.68 -150.86,4157.56 -143.94,4225.88 -276.04,8452.34 -406.05,12678.69 1744.37,31.37 3489.21,51.83 5232.63,51.83l2124.83 0c1422.08,0 2505.96,858.54 3116.51,2079.44l159.67 319.44 164.03 694.98 0 9614.49c0,1397.35 -830.96,2471.09 -2021.73,3092.35l-328.44 171.33 -719.52 176.45 -370.52 0c-888.39,0 -1802.36,-48.99 -2691.03,-79.88 -2139.14,-74.29 -4278.19,-154.27 -6417.15,-234.53 -5227.89,-196.25 -10455.59,-397.62 -15683.2,-600.98l0 44523.82c0,1397.45 -830.96,2471.19 -2021.73,3092.44l-362.46 189.14 -798.46 175.02 -408.33 -20.09c-1783.5,-87.75 -3581.41,-178.25 -5365.01,-323.61 -22.74,115.99 -47.19,234.63 -67.75,352.23 -7.77,783.58 -55.34,1587.92 -87.65,2367.42 -81.02,1959.38 -169.62,3918.57 -258.7,5877.76 -287.22,6313.76 -586.95,12627.14 -888.67,18940.24 922.79,28.81 1846.14,45.2 2717,77.33 4817.19,177.77 9635.53,336.78 14453.48,496.17l747 24.73 1303.73 731.46 902.6 1373.47 257.28 860.05 0 126.51zm-40045.02 -3132.34l0 -29208.2c0,-99.31 4.17,-196.91 12.41,-292.91 -1422.65,-97.51 -2845.78,-190.85 -4269.19,-273.86 -830.68,-48.42 -1711.67,-117.6 -2542.92,-117.6l-758.28 0 -1341.82 -706.83 -947.71 -1382.09 -274.9 -886.97 0 -41509.08c0,-1487.56 890.66,-2479.81 2088.83,-3000.43l-6505.37 -631.68 0 201.94 -257.28 860.05 -961.07 1462.36 -1540.25 737.15 -5649.39 -548.57 233.97 448.41 176.45 719.62 0 41919.4c1348.08,63.96 2696.06,129.06 4044.04,194.55l1109.09 53.82 204.68 188.1 240.69 0 750.79 911.6 438.75 403.3 20.56 154.18 629.78 764.53 -277.08 1420.09c-24.07,123.57 -50.41,250.55 -72.49,376.3 -7.77,783.58 -55.34,1587.92 -87.56,2367.42 -81.12,1959.38 -169.72,3918.57 -258.79,5877.76 -287.22,6313.76 -586.95,12627.14 -888.67,18940.24 922.79,28.81 1846.14,45.2 2717,77.33 4654.68,171.8 9310.4,326.07 13965.74,480.06zm15265.49 -32139.84c-30.89,-651.67 -105.28,-1337.84 -159.67,-1960.04 -87.46,-1000.21 -182.89,-2000.22 -282.58,-2999.77 -3028.95,-83.67 -6061.32,-174.36 -9088.66,-301.15l-574.54 4791.51c843.19,33.74 1690.54,82.54 2515.82,118.74 2530.13,110.78 5059.88,229.32 7589.63,350.71zm-51612.16 17697.26c-318.87,55.15 -638.88,101.77 -952.92,145.36 -1760.1,244.01 -3558.76,404.16 -5343.88,541.56 -55.72,1385.51 -103.57,2771.68 -150.77,4157.56 -144.04,4225.79 -276.04,8452.24 -406.05,12678.6 1744.27,31.37 3489.21,51.83 5232.63,51.83l1620.99 0 0 -17574.92zm-34918.52 18492.4c-644,247.33 -1343.15,405.29 -1995.49,533.32 -481.96,94.57 -967.61,182.04 -1455.44,264.19 758.66,1179.59 1517.41,2362.4 2268.4,3548.24l0 -1812.31c0,-1034.13 459.5,-1901.48 1182.53,-2533.45zm2387.8 -16158.05l0 13053.66c0,1049.96 -396.77,1783.03 -1000.4,2309.43l499.77 -122.53 2377.85 0c1410.33,0 2822.47,-18.95 4234.03,-47.95l892.84 -15475.48c-2107.3,72.4 -4221.71,134.75 -6316.32,140.53l-687.78 142.33zm-558.62 -16742.53c54.39,-9.19 109.26,-17.44 164.51,-24.54l97.51 -12.6 196.35 -12.6 90.78 0.09c820.25,-13.27 1698.22,-91.92 2526.24,-144.13 1864.34,-117.6 3728.48,-242.21 5592.44,-368.15l-590.74 -311.2 -947.71 -1382 -274.9 -887.06 0 -26802.4c-937.28,10.71 -1910.86,75.62 -2841.33,118.07 -1560.25,71.17 -3120.4,147.54 -4680.36,226.38 57.33,2038.89 158.25,4091.42 234.63,6105.19 260.88,6878.06 553.5,13755.56 849.54,20632.2l34.87 808.88 -738.1 1441.32 -81.21 53.35 367.48 559.19zm-21028.59 -49479.27l-165.83 -535.12c-157.3,157.87 -315.46,315.18 -474.09,472.01 213.31,21.04 426.62,42.07 639.92,63.11zm35880.54 -30209.74c-318.87,55.15 -638.88,101.77 -952.92,145.27 -1760.1,244.11 -3558.76,404.25 -5343.88,541.56 -55.72,1385.6 -103.57,2771.68 -150.77,4157.56 -144.04,4225.88 -276.04,8452.34 -406.05,12678.69 1744.27,31.37 3489.21,51.83 5232.63,51.83l1620.99 0 0 -17574.92zm-32402.61 2307.72l0 5200.13c0,1464.82 -938.8,2587.65 -1900.44,3577.24 -383.88,395.06 -785.29,781.4 -1196.27,1160.07 323.23,279.74 642.48,562.69 956.05,849.44 997.55,912.55 2040.59,1893.81 2134.31,3345.08l3.13 49.37 3.22 98.74 0 987.13 1749.11 0c1410.33,0 2822.47,-19.05 4234.03,-47.95l892.84 -15475.48c-2107.3,72.3 -4221.71,134.66 -6316.32,140.53l-559.66 115.7zm-22903.54 -3291.54l0 5798.92 5813.04 0c17.06,-190.09 33.55,-377.62 48.61,-561.18 125.37,-1527.08 258.04,-3053.87 394.21,-4580.29 -311.48,-32.03 -620.21,-63.68 -922.98,-96.66 -1776.68,-193.69 -3554.69,-379.05 -5332.89,-560.8zm-843.66 19448.82c-15.26,637.84 -26.15,1275.49 -30.23,1911.91 2019.74,-54.01 4045.27,-107.36 6065.39,-138.07 -45.67,-508.49 -94,-1016.88 -144.23,-1525.18l-5890.94 -248.65zm65112.34 30878.28l0 11904.3c347.77,52.69 691.95,104.14 1026.08,156.92 1473.26,233.21 2947.84,460.26 4422.8,684.37l-210.18 -13297.58c-1558.73,162.71 -3117.36,326.74 -4675.53,493.8 -185.92,19.99 -373.93,39.14 -563.17,58.18zm53025.05 -2451.29l0 8409.98 3873.56 0c-163.84,-2350.93 -324.46,-4702.25 -476.93,-7053.75 -28.52,-441.11 -63.02,-896.16 -96.85,-1356.22l-3299.78 0zm-94694.38 53738.7c-31.75,-2219.97 -92.11,-4448 -151.52,-6668.55 -2.27,0.19 -4.45,0.38 -6.63,0.47 -1435.16,107.84 -2870.13,224.68 -4304.63,345.22 -179.48,2131.66 -351.85,4309.75 -445.57,6451.35 1634.07,-31.08 3274.1,-80.26 4908.35,-128.5z"/>
   <path class="fil2" d="M7624.88 102341.43c21163.06,2082.1 32342.53,3214.02 33527.71,3374.17l128.21 256.23 0 9887.5c0,117.41 -128.21,245.62 -373.74,373.74 -694.13,0 -4313.82,160.15 -10891.21,501.76 0,2253.05 373.74,12172.57 1131.83,29779.99l-373.74 245.53 -11638.59 373.74c-170.85,85.38 -298.97,128.12 -373.74,128.12l-256.23 -373.74 0 -30783.52 -10880.5 -245.62 -256.23 -384.45 0 -12759.71 256.23 -373.74zm69756.98 1249.33l245.53 373.74 0 28028.71c0,341.71 -2541.31,832.86 -7634.45,1505.57l0 501.86c4132.26,6459.98 6630.83,10421.29 7506.33,11884.12l-245.62 128.21c-1964.59,0 -6470.59,160.15 -13517.8,501.86 -597.94,-395.15 -2146.25,-2605.46 -4623.41,-6630.83 -2007.42,-3085.81 -3085.81,-4634.12 -3256.66,-4634.12l-128.21 245.53 -501.76 11136.83c-202.88,170.85 -373.74,256.23 -501.86,256.23 -1954.07,0 -5541.74,128.12 -10752.38,373.74l-256.23 -373.74 0 -40671.01c0,-202.88 170.85,-331 501.86,-373.74l33164.68 -2252.95zm-22401.68 10389.35c-501.86,6022.18 -747.38,10154.34 -747.38,12385.98 918.24,0 4623.41,-85.47 11136.74,-245.53 0,-1302.78 -85.47,-5595.09 -256.33,-12898.63 -918.24,0 -4292.31,256.33 -10133.02,758.19zm58876.38 -11008.71l245.62 373.74 0 9759.38c0,395.06 -3000.43,811.44 -9012,1249.24 -747.38,0 -1121.12,245.62 -1121.12,747.48 -85.38,758.09 -331,8093.66 -758.09,22027.95 3651.72,85.38 6449.27,117.41 8392.64,117.41l2124.83 0c128.12,0 245.53,128.12 373.74,384.45l0 9257.43c0,128.12 -128.21,245.62 -373.74,373.74 -896.92,0 -11990.91,-416.38 -33282.19,-1249.24l-256.23 -373.74 0 -8008.19c0,-128.21 128.12,-256.33 373.74,-384.45l2007.33 0c1601.66,0 3982.82,-32.03 7132.69,-117.41l1249.24 -21654.3c-5125.26,170.85 -8424.67,256.33 -9887.5,256.33l-619.27 128.12 -256.23 -384.45 0 -9876.79c0,-213.5 170.85,-341.61 501.86,-384.35 854.18,0 11905.53,-747.48 33164.68,-2242.34zm2808.25 -1505.57c715.35,0 5466.97,202.98 14265.28,630.07 21.32,160.15 106.8,245.53 256.23,245.53 -85.38,437.8 -128.12,683.42 -128.12,747.48 0,1003.62 -459.12,11094 -1377.45,30281.66 608.65,85.47 7367.6,331 20276.85,758.19l245.62 373.64 0 12386.07 -245.62 373.74 -33538.42 -3256.66 -128.12 -245.62 0 -41920.35c0,-128.12 128.12,-245.62 373.74,-373.74zm36346.67 0c715.35,0 5466.88,202.98 14265.19,630.07 21.42,160.15 106.8,245.53 256.33,245.53 -85.38,437.8 -128.12,683.42 -128.12,747.48 0,1003.62 -459.21,11094 -1377.45,30281.66 608.65,85.47 7367.6,331 20276.85,758.19l245.53 373.64 0 12386.07 -245.53 373.74 -33538.42 -3256.66 -128.12 -245.62 0 -41920.35c0,-128.12 128.12,-245.62 373.74,-373.74zm69639.38 1505.57l245.62 373.74 0 9759.38c0,395.06 -3000.43,811.44 -9011.9,1249.24 -747.38,0 -1121.12,245.62 -1121.12,747.48 -85.47,758.09 -331,8093.66 -758.09,22027.95 3651.72,85.38 6449.27,117.41 8392.54,117.41l2124.83 0c128.12,0 245.62,128.12 373.74,384.45l0 9257.43c0,128.12 -128.12,245.62 -373.74,373.74 -896.92,0 -11990.91,-416.38 -33282.09,-1249.24l-256.33 -373.74 0 -8008.19c0,-128.21 128.21,-256.33 373.74,-384.45l2007.42 0c1601.66,0 3982.73,-32.03 7132.59,-117.41l1249.33 -21654.3c-5125.26,170.85 -8424.67,256.33 -9887.5,256.33l-619.27 128.12 -256.33 -384.45 0 -9876.79c0,-213.5 170.95,-341.61 501.95,-384.35 854.18,0 11905.53,-747.48 33164.59,-2242.34z"/>
   <path class="fil3" d="M25979.68 9749.81l28156.92 1121.12c234.91,0 1857.89,2252.95 4879.64,6758.95 331,266.94 501.86,683.32 501.86,1249.24l0 11136.74c0,501.86 -1377.45,1922.04 -4132.26,4249.76l-373.64 501.86 0 256.23c2979.01,2413.1 4484.49,3790.55 4505.9,4121.55l0 7634.45c0,480.53 -2007.42,2605.37 -6011.47,6385.31 -16721.21,-832.95 -25936,-1249.33 -27644.36,-1249.33l-256.33 -373.74 0 -41418.49c0,-128.12 128.12,-256.23 373.74,-373.64zm10634.88 8381.93l0 12257.86 11521.18 0c160.15,0 245.62,-85.38 245.62,-245.62 0,-629.88 288.26,-4174.9 875.5,-10634.88 -1003.62,-170.85 -5210.64,-629.97 -12642.3,-1377.36zm-747.38 19646.78c-85.38,2541.31 -128.12,4420.52 -128.12,5627.12l0 2626.69c7015.18,-170.85 11136.74,-245.62 12396.68,-245.62l0 -128.12c0,-1025.03 -213.5,-3480.87 -629.97,-7388.92l-11638.59 -491.15zm59751.97 -28904.3l245.62 373.74 0 9759.28c0,395.15 -3000.43,811.54 -9012,1249.33 -747.38,0 -1121.12,245.53 -1121.12,747.48 -85.38,758.09 -331,8093.57 -758.09,22027.85 3651.72,85.38 6449.27,117.5 8392.64,117.5l2124.83 0c128.12,0 245.53,128.12 373.74,384.35l0 9257.52c0,128.12 -128.21,245.53 -373.74,373.74 -896.92,0 -11990.91,-416.48 -33282.19,-1249.33l-256.23 -373.74 0 -8008.19c0,-128.12 128.12,-256.23 373.74,-384.35l2007.33 0c1601.66,0 3982.82,-32.12 7132.69,-117.5l1249.24 -21654.21c-5125.26,170.85 -8424.67,256.23 -9887.5,256.23l-619.27 128.21 -256.23 -384.45 0 -9876.79c0,-213.59 170.85,-341.71 501.86,-384.35 854.18,0 11905.53,-747.48 33164.68,-2242.34zm2808.25 -1505.57c715.35,0 5466.97,202.88 14265.28,629.97 21.32,160.24 106.8,245.62 256.23,245.62 -85.38,437.8 -128.12,683.32 -128.12,747.38 0,1003.71 -459.12,11094.09 -1377.45,30281.76 608.65,85.38 7367.6,331 20276.85,758.09l245.62 373.74 0 12386.07 -245.62 373.74 -33538.42 -3256.66 -128.12 -245.62 0 -41920.35c0,-128.12 128.12,-245.62 373.74,-373.74zm36346.67 0c715.35,0 5466.88,202.88 14265.28,629.97 21.32,160.24 106.7,245.62 256.23,245.62 -85.38,437.8 -128.12,683.32 -128.12,747.38 0,1003.71 -459.12,11094.09 -1377.45,30281.76 608.65,85.38 7367.6,331 20276.85,758.09l245.53 373.74 0 12386.07 -245.53 373.74 -33538.42 -3256.66 -128.12 -245.62 0 -41920.35c0,-128.12 128.12,-245.62 373.74,-373.74zm69639.38 1505.57l245.62 373.74 0 9759.28c0,395.15 -3000.43,811.54 -9011.9,1249.33 -747.38,0 -1121.12,245.53 -1121.12,747.48 -85.47,758.09 -331,8093.57 -758.09,22027.85 3651.72,85.38 6449.27,117.5 8392.54,117.5l2124.83 0c128.12,0 245.62,128.12 373.74,384.35l0 9257.52c0,128.12 -128.12,245.53 -373.74,373.74 -896.92,0 -11990.91,-416.48 -33282.09,-1249.33l-256.33 -373.74 0 -8008.19c0,-128.12 128.21,-256.23 373.74,-384.35l2007.42 0c1601.66,0 3982.73,-32.12 7132.59,-117.5l1249.33 -21654.21c-5125.26,170.85 -8424.67,256.23 -9887.5,256.23l-619.27 128.21 -256.33 -384.45 0 -9876.79c0,-213.59 170.95,-341.71 501.95,-384.35 854.18,0 11905.53,-747.48 33164.59,-2242.34z"/>
   <path class="fil4" d="M53965.85 55292.88c21162.96,2082.1 32342.53,3213.93 33527.71,3374.07l128.12 256.23 0 9887.5c0,117.5 -128.12,245.62 -373.74,373.74 -694.03,0 -4313.73,160.15 -10891.21,501.86 0,2252.95 373.74,12172.48 1131.83,29779.9l-373.74 245.53 -11638.5 373.74c-170.95,85.38 -299.07,128.12 -373.74,128.12l-256.33 -373.74 0 -30783.52 -10880.41 -245.62 -256.33 -384.35 0 -12759.71 256.33 -373.74zm36346.58 0c21889.12,1003.62 33068.59,1580.24 33527.71,1751.1l128.21 245.53 0 42550.32 -245.62 373.74c-20105.99,-832.86 -31242.73,-1249.24 -33410.3,-1249.24l-256.23 -373.74 0 -42923.97 256.23 -373.74zm10570.82 13827.49l0 17201.65c939.65,213.5 4815.68,822.15 11638.69,1847.18l-320.39 -20266.05c-7207.36,747.38 -10987.3,1153.15 -11318.3,1217.21zm75298.62 -14831.2l245.62 373.64 0 45177.01c0,128.21 -128.21,245.62 -373.74,373.74 -5424.24,-266.94 -8136.31,-523.18 -8136.31,-747.38 0,-875.6 -245.62,-3715.88 -747.48,-8510.14 -6299.83,-170.76 -11147.44,-331 -14542.93,-501.76l0 -224.21 -971.68 8104.28 -373.64 256.23c-4879.74,-341.71 -7719.92,-501.86 -8510.14,-501.86l-256.23 -373.74 0 -41044.75c0,-437.7 3171.28,-726.06 9513.76,-875.6 726.06,-85.38 8776.99,-587.24 24152.78,-1505.47zm-22273.47 12044.36l0 14542.93 10229.11 0c-629.97,-8937.23 -939.65,-13763.52 -939.65,-14446.85l-192.18 -96.09 -9097.28 0z"/>
   <path class="fil5" d="M57628.37 57336.32l0 9459.84 10020.07 226.2 1116.67 1142.16 0 29824.72 8650.2 -277.75c-270.64,-6303.34 -536.44,-12607.43 -775.53,-18912 -76.09,-2005.81 -150.1,-4012.01 -211.79,-6018.39 -32.69,-1059.15 -71.26,-2128.25 -71.26,-3187.87l0 -782.07 1076.87 -1134.2 781.02 -40.56c2554.29,-132.67 5108.96,-263.06 7664.11,-379.61 572.83,-26.15 1158.17,-59.13 1742.95,-84.62l0 -6836.56c-379.71,-38.57 -759.04,-75.62 -1134.58,-114.76 -2167.1,-226.01 -4334.95,-445.19 -6502.81,-663.71 -7450.8,-750.98 -14903.31,-1487.28 -22355.91,-2220.83zm36346.67 -96.85l0 39699.24c556.34,15.35 1112.59,34.87 1665.53,52.12 2227.75,69.74 4455.49,151.33 6682.76,234.72 7215.51,269.69 14430.55,564.49 21645.01,862.9l0 -39357.53c-404.54,-22.93 -806.42,-39.52 -1168.12,-61.97 -2158.29,-133.71 -4318.75,-246.66 -6478.27,-358.1 -7447.2,-384.26 -14897.53,-729.57 -22346.91,-1071.37zm8495.55 9864.09c333.09,-64.44 706.16,-96.47 1044.08,-135.13 732.69,-83.77 1465.96,-162.89 2199.13,-241.74 2747.51,-295.28 5496.35,-580.6 8245.09,-865.65l857.69 -88.89 1289.99 1144.72 348.34 22036.19 -1366.74 1195.7 -897.86 -134.85c-2681.18,-402.83 -5363.02,-806.42 -8040.88,-1230.38 -1220.81,-193.22 -2537.43,-370.33 -3740.89,-643.9l-669.11 -152 -856.17 -1072.51 0 -18591.8 896.16 -1086.06 691.19 -133.71zm69290.28 30657.67c376.3,33.36 749.75,56.1 1035.46,79.13 1207.64,97.13 2419.64,171.71 3631.16,237.09l0 -41816.02c-5239.83,313.19 -10479.66,627.89 -15718.54,954.44 -1553.04,96.85 -3106.18,193.98 -4658.85,297.84 -598.23,39.99 -1238.53,65.01 -1832.78,133.99l-45.39 5.31 -91.44 6.44 -45.77 1.04c-2028.27,47.85 -4072.37,106.42 -6096.38,249.41 -356.02,25.11 -952.64,58.47 -1504.15,118.93l0 38065.64c380.66,21.7 759.99,46.15 1132.4,67.85 1430.71,83.48 2861.13,177.2 4291.08,275.09l1003.05 -8366.39 3685.18 220.04 0 201.27c4208.45,187.15 8428.36,297.93 12636.62,411.93l736.86 19.99 1082.08 1001.53 76.76 733.17c200.7,1917.5 397.05,3837.17 565.06,5757.89 38.19,436 81.68,889.34 117.6,1344.38zm-16704.72 -33480.24l10137.1 0 444.15 104.9 894.07 446.99 585.25 947.05 0 556.63c0,383.59 33.45,794.57 55.15,1178.36 53.16,941.17 113.33,1882.25 174.36,2823.13 222.78,3436.52 463.19,6872.38 705.31,10307.57l59.98 850.2 -1162.25 1246.96 -11893.12 0 -1147.75 -1147.75 0 -16166.2 1147.75 -1147.84z"/>
   <path class="fil6" d="M29524.8 11680.86l0 38220.48c354.69,13.17 708.72,27.95 1060.29,41.32 1839.41,70.22 3678.64,151.71 5517.48,234.82 6208.95,280.68 12417.34,586.76 18625.06,895.87 1151.07,-1091.56 2297.68,-2197.52 3399.19,-3335.22 347.4,-358.77 1021.05,-1027.5 1391.29,-1522.82l0 -6529.53c-281.54,-286.37 -649.02,-598.7 -886.59,-808.98 -940.32,-832.38 -1917.59,-1633.31 -2893.25,-2423.62l-344.55 -279.07 -381.51 -800.17 0 -1015.75 198.9 -600.31 629.69 -845.75 153.99 -163.75 85.85 -72.59c881,-744.26 1766.64,-1508.98 2593.33,-2313.5 212.64,-206.96 603.35,-580.89 844.13,-882.23l0 -10633.65 -87.46 -95.42 -82.35 -122.81c-1016.79,-1516.28 -2039.83,-3034.16 -3095.85,-4523.43 -272.91,-385.02 -649.68,-950.65 -1006.46,-1399.72l-25721.17 -1024.18zm9245.3 4408.2c2916.57,293.29 5833.79,588.94 8747.9,906.58 1318.32,143.75 2721.45,266.47 4027.17,488.78l756.39 128.78 935.67 1216.17 -69.46 764.16c-226.86,2494.5 -451.73,4990.04 -656.51,7486.53 -76.66,934.06 -211.03,2039.64 -211.03,2970.86 0,1242.32 -962.68,2205.1 -2205,2205.1l-12332.81 0 -1147.84 -1147.84 0 -13939.3 1290.18 -1166.89 865.36 87.09zm-1676.71 19604.23l13181.59 556.34 1061.61 995.75 77.04 723.6c170.85,1603.46 337.35,3209.38 475.04,4815.96 77.99,909.9 165.93,1867.56 165.93,2780.58l0 939.75 -1147.75 1147.84 -811.63 0c-4099.66,0 -8249.64,145.17 -12349.02,245.05l-825.37 20.09 -1181.77 -1153.34 0 -3452.35c0,-1893.9 65.57,-3800.12 129.25,-5692.88l27.39 -816.18 1197.69 -1110.22zm48640.82 -14910.89c66.52,-1659.84 1422.75,-2547.85 2996.17,-2577.6 1906.5,-139.01 3825.71,-289.4 5723.87,-514.36 342.47,-40.65 895.87,-97.32 1410.52,-177.01l0 -6647.51c-7462.17,524.6 -14924.73,1047.3 -22388.13,1551.91 -2128.81,144.04 -4257.82,287.41 -6387.2,421.12 -394.3,24.73 -805.38,56.86 -1217.97,84.43l0 6652.91c2905,-26.82 5843.65,-153.51 8738.33,-249.98l863.84 -28.81 1207.45 1237.11 -1343.05 23279.27 -1096.01 1063.03 -763.11 20.66c-2392.91,64.91 -4791.89,118.17 -7185.76,118.17l-421.69 0 0 4912.62c7552.96,295.37 15105.91,589.7 22659.25,873.23 2134.22,80.07 4268.62,159.96 6403.03,234.06 307.5,10.61 618.7,23.97 931.03,36.48l0 -6056.39 -539.19 0c-2811.85,0 -5627.4,-52.21 -8438.41,-117.98l-815.52 -19.05 -1122.16 -1184.42 25.02 -815.52c163.08,-5320.66 325.51,-10641.8 507.45,-15961.89 48.71,-1428.15 98.08,-2856.68 156.92,-4284.45 24.64,-597.85 33.92,-1250.85 95.33,-1850.03zm16238.31 -11510.85l0 38752.85 29993.3 2912.49 0 -9094.63c-4370.21,-144.7 -8740.6,-290.73 -13110.05,-452.86 -1310.64,-48.71 -2621.67,-97.89 -3931.93,-157.21 -568.19,-25.68 -1232.18,-32.69 -1793.26,-111.44l-752.22 -105.47 -969.03 -1169.92 36.29 -758.66c350.24,-7318.04 699.91,-14636.37 1032.8,-21955.26 88.89,-1952.18 177.11,-3904.55 257.94,-5857.2 20.37,-490.96 48.52,-995.47 66.62,-1496.38 -2799.91,-135.03 -5600.02,-267.23 -8400.31,-389.85 -795.14,-34.87 -1615.4,-83.39 -2430.16,-116.46zm36346.67 0l0 38752.85 29993.21 2912.49 0 -9094.63c-4370.11,-144.7 -8740.5,-290.73 -13109.95,-452.86 -1310.64,-48.71 -2621.67,-97.89 -3931.93,-157.21 -568.19,-25.68 -1232.18,-32.69 -1793.36,-111.44l-752.12 -105.47 -969.03 -1169.92 36.2 -758.66c350.33,-7318.04 700,-14636.37 1032.9,-21955.26 88.89,-1952.18 177.11,-3904.55 257.94,-5857.2 20.28,-490.96 48.52,-995.47 66.62,-1496.38 -2799.91,-135.03 -5600.02,-267.23 -8400.41,-389.85 -795.05,-34.87 -1615.3,-83.39 -2430.06,-116.46zm56209.42 11510.85c66.43,-1659.84 1422.75,-2547.85 2996.07,-2577.6 1906.5,-139.01 3825.71,-289.4 5723.87,-514.36 342.56,-40.65 895.97,-97.32 1410.52,-177.01l0 -6647.51c-7462.08,524.6 -14924.63,1047.3 -22388.13,1551.91 -2128.72,144.04 -4257.72,287.41 -6387.11,421.12 -394.3,24.73 -805.47,56.86 -1217.97,84.43l0 6652.91c2905,-26.82 5843.55,-153.51 8738.23,-249.98l863.84 -28.81 1207.45 1237.11 -1343.05 23279.27 -1095.92 1063.03 -763.21 20.66c-2392.82,64.91 -4791.8,118.17 -7185.76,118.17l-421.59 0 0 4912.62c7552.86,295.37 15105.82,589.7 22659.25,873.23 2134.22,80.07 4268.53,159.96 6403.03,234.06 307.41,10.61 618.7,23.97 930.94,36.48l0 -6056.39 -539.1 0c-2811.85,0 -5627.4,-52.21 -8438.41,-117.98l-815.61 -19.05 -1122.07 -1184.42 25.02 -815.52c162.99,-5320.66 325.51,-10641.8 507.35,-15961.89 48.8,-1428.15 98.17,-2856.68 157.02,-4284.45 24.64,-597.85 33.92,-1250.85 95.33,-1850.03z"/>
   <path class="fil7" d="M11287.5 104384.96l0 9459.84 10020.07 226.2 1116.67 1142.16 0 29824.72 8650.2 -277.75c-270.73,-6303.43 -536.44,-12607.43 -775.53,-18912 -76.09,-2005.91 -150.1,-4012.1 -211.89,-6018.48 -32.6,-1059.15 -71.17,-2128.25 -71.17,-3187.77l0 -782.07 1076.87 -1134.2 780.93 -40.56c2554.29,-132.76 5109.06,-263.06 7664.21,-379.61 572.74,-26.15 1158.08,-59.13 1742.95,-84.62l0 -6836.56c-379.71,-38.66 -759.04,-75.62 -1134.67,-114.76 -2167,-226.01 -4334.95,-445.19 -6502.72,-663.71 -7450.8,-750.98 -14903.31,-1487.28 -22355.91,-2220.83zm66339.88 1193.14l-29993.21 2037.56 0 37509.87c2546.43,-123.28 5121,-245.34 7665.91,-279.83l439.12 -9745.64 111.44 -414.11 480.72 -920.99 936.34 -567.53 547.44 0c1243.08,0 1920.53,1105.11 2543.96,1994.25 810.59,1155.99 1585.45,2347.33 2355.29,3530.71l19.81 31.18 6.44 10.42c901.94,1465.67 1821.6,2938.08 2797.55,4355.9 218.33,317.17 591.5,878.06 932.26,1302.78 2605.27,-124.9 5211.4,-242.4 7817.72,-338.11 589.32,-21.7 1180.73,-43.78 1772.61,-63.3 -263.53,-417.8 -527.73,-834.94 -790.78,-1251.51 -1646.67,-2608.02 -3306.22,-5208.09 -4968.34,-7806.25l-151.14 -236.52 -157.59 -538.72 0 -1519.78 971.97 -1108.8 730.89 -96.56c1618.43,-213.69 3246.43,-436 4854.44,-718.1 275.09,-48.23 682.28,-112.86 1077.15,-192.46l0 -24974.46zm-10250.24 22408.22c-2556.95,62.83 -5113.99,125.94 -7671.03,182.98 -1167.84,25.96 -2346.01,63.21 -3513.94,63.21l-811.63 0 -1147.75 -1147.84 0 -811.63c0,-1623.45 91.54,-3268.79 188.95,-4889.12 153.61,-2554.86 352.61,-5109.06 565.16,-7659.66l59.51 -713.84 1011.77 -1014.33 713.65 -61.31c2310.09,-198.53 4621.42,-395.34 6933.5,-568.95 1092.69,-82.06 2273.04,-196.35 3367.35,-196.35l798.27 0 1141.97 1115.53 18.67 798.08c67.94,2902.07 134.66,5804.23 192.37,8706.49 28.05,1409.95 64.44,2827.68 64.44,4237.92l0 797.51 -1113.92 1141.69 -797.32 19.62zm36594.47 -13106.64c66.52,-1659.84 1422.75,-2547.94 2996.17,-2577.6 1906.5,-139.11 3825.71,-289.5 5723.87,-514.36 342.47,-40.65 895.87,-97.41 1410.52,-177.11l0 -6647.51c-7462.17,524.6 -14924.73,1047.3 -22388.13,1552 -2128.81,143.94 -4257.82,287.32 -6387.2,421.02 -394.3,24.83 -805.38,56.86 -1217.97,84.43l0 6653.01c2905,-26.91 5843.65,-153.51 8738.33,-250.08l863.84 -28.81 1207.45 1237.11 -1343.05 23279.27 -1096.01 1063.03 -763.11 20.75c-2392.91,64.82 -4791.89,118.17 -7185.76,118.17l-421.69 0 0 4912.52c7552.96,295.37 15105.91,589.7 22659.25,873.32 2134.22,80.07 4268.62,159.86 6403.03,233.97 307.5,10.71 618.7,23.97 931.03,36.58l0 -6056.39 -539.19 0c-2811.85,0 -5627.4,-52.31 -8438.41,-118.07l-815.52 -19.05 -1122.16 -1184.42 25.02 -815.42c163.08,-5320.76 325.51,-10641.8 507.45,-15961.89 48.71,-1428.15 98.08,-2856.68 156.92,-4284.45 24.64,-597.94 33.92,-1250.94 95.33,-1850.03zm16238.31 -11510.95l0 38752.95 29993.3 2912.4 0 -9094.63c-4370.21,-144.7 -8740.6,-290.73 -13110.05,-452.86 -1310.64,-48.61 -2621.67,-97.79 -3931.93,-157.11 -568.19,-25.78 -1232.18,-32.79 -1793.26,-111.44l-752.22 -105.56 -969.03 -1169.92 36.29 -758.66c350.24,-7318.04 699.91,-14636.37 1032.8,-21955.17 88.89,-1952.27 177.11,-3904.64 257.94,-5857.2 20.37,-491.05 48.52,-995.56 66.62,-1496.47 -2799.91,-135.03 -5600.02,-267.13 -8400.31,-389.85 -795.14,-34.87 -1615.4,-83.39 -2430.16,-116.46zm36346.67 0l0 38752.95 29993.21 2912.4 0 -9094.63c-4370.11,-144.7 -8740.5,-290.73 -13109.95,-452.86 -1310.64,-48.61 -2621.67,-97.79 -3931.93,-157.11 -568.19,-25.78 -1232.18,-32.79 -1793.36,-111.44l-752.12 -105.56 -969.03 -1169.92 36.2 -758.66c350.33,-7318.04 700,-14636.37 1032.9,-21955.17 88.79,-1952.27 177.11,-3904.64 257.94,-5857.2 20.28,-491.05 48.52,-995.56 66.62,-1496.47 -2799.91,-135.03 -5600.02,-267.13 -8400.41,-389.85 -795.14,-34.87 -1615.3,-83.39 -2430.06,-116.46zm56114.09 13360.97c24.64,-597.94 33.92,-1250.94 95.33,-1850.03 66.43,-1659.84 1422.75,-2547.94 2996.07,-2577.6 1906.5,-139.11 3825.71,-289.5 5723.87,-514.36 342.56,-40.65 895.97,-97.41 1410.52,-177.11l0 -6647.51c-7462.17,524.6 -14924.63,1047.3 -22388.13,1552 -2128.72,143.94 -4257.72,287.32 -6387.2,421.02 -394.21,24.83 -805.38,56.86 -1217.87,84.43l0 6653.01c2905,-26.91 5843.55,-153.51 8738.23,-250.08l863.84 -28.81 1207.45 1237.11 -1343.05 23279.27 -1095.92 1063.03 -763.21 20.75c-2392.82,64.82 -4791.8,118.17 -7185.76,118.17l-421.59 0 0 4912.52c7552.86,295.37 15105.82,589.7 22659.25,873.32 2134.22,80.07 4268.53,159.86 6403.03,233.97 307.41,10.71 618.7,23.97 930.94,36.58l0 -6056.39 -539.1 0c-2811.85,0 -5627.4,-52.31 -8438.41,-118.07l-815.61 -19.05 -1122.07 -1184.42 25.02 -815.42c162.99,-5320.76 325.51,-10641.8 507.35,-15961.89 48.8,-1428.15 98.17,-2856.68 157.02,-4284.45z"/>
  </g>
 </g>
</svg>
